<?xml version="1.0" standalone="no"?>
<!DOCTYPE svg PUBLIC "-//W3C//DTD SVG 20010904//EN"
 "http://www.w3.org/TR/2001/REC-SVG-20010904/DTD/svg10.dtd">
<svg version="1.0" xmlns="http://www.w3.org/2000/svg"
 width="1264.000000pt" height="1264.000000pt" viewBox="0 0 1264.000000 1264.000000"
 preserveAspectRatio="xMidYMid meet">
<metadata>
Created by potrace 1.11, written by Peter Selinger 2001-2013
</metadata>
<g transform="translate(0.000000,1264.000000) scale(0.100000,-0.100000)"
fill="#000000" stroke="none">
<path d="M4880 10185 c-14 -25 -28 -45 -32 -45 -5 0 -8 -4 -8 -10 0 -8 -40
-74 -90 -150 -6 -8 -32 -51 -60 -95 -27 -44 -53 -84 -57 -90 -5 -5 -37 -57
-73 -115 -35 -58 -67 -106 -72 -108 -4 -2 -8 -7 -8 -12 0 -8 -179 -299 -190
-310 -3 -3 -88 -138 -190 -300 -101 -162 -187 -297 -190 -300 -4 -3 -13 -17
-21 -31 -12 -23 -56 -95 -119 -194 -78 -124 -154 -244 -163 -259 -7 -11 -16
-25 -20 -30 -4 -6 -30 -47 -57 -91 -28 -44 -54 -87 -60 -95 -19 -28 -193 -305
-204 -325 -13 -21 -88 -140 -106 -165 -5 -8 -56 -89 -112 -180 -56 -91 -106
-169 -111 -175 -4 -5 -47 -73 -95 -150 -48 -77 -90 -141 -94 -143 -5 -2 -8 -8
-8 -13 0 -9 -139 -232 -160 -256 -5 -7 -10 -17 -10 -22 0 -5 -6 -16 -13 -23
-7 -7 -32 -44 -56 -83 -42 -70 -172 -277 -191 -305 -12 -18 -179 -282 -229
-363 -58 -94 -62 -100 -158 -252 -51 -80 -93 -150 -93 -156 0 -5 -4 -9 -9 -9
-5 0 -18 -18 -29 -39 -12 -22 -48 -81 -81 -131 -34 -50 -61 -93 -61 -95 0 -8
-105 -170 -112 -173 -5 -2 -8 -7 -8 -12 0 -4 -67 -113 -148 -242 -81 -128
-165 -262 -187 -298 -22 -36 -43 -69 -48 -75 -4 -5 -36 -55 -70 -110 -34 -55
-64 -102 -67 -105 -7 -7 -29 -42 -37 -60 -4 -8 -39 -64 -78 -125 -39 -60 -95
-148 -124 -195 -29 -47 -81 -130 -116 -185 -35 -55 -79 -125 -96 -155 -18 -30
-36 -57 -39 -60 -4 -3 -15 -21 -26 -40 -10 -19 -22 -37 -25 -40 -3 -3 -23 -34
-44 -70 -21 -36 -41 -67 -45 -70 -3 -3 -25 -36 -48 -75 -23 -38 -66 -107 -95
-153 -168 -266 -212 -338 -215 -349 -2 -7 -8 -13 -13 -13 -5 0 -9 -3 -9 -7 0
-5 217 -8 481 -8 l482 1 122 194 c68 107 174 276 236 375 127 202 190 302 228
359 14 21 30 47 36 57 5 11 46 75 90 144 44 69 85 133 90 143 26 47 80 128 90
134 5 4 6 8 1 8 -5 0 -1 9 9 20 10 11 23 29 29 39 6 11 24 42 40 70 16 28 33
51 38 51 4 0 8 4 8 9 0 9 58 109 70 121 3 3 10 14 17 25 6 11 36 58 65 104 29
47 62 99 73 117 27 43 106 169 125 199 13 20 53 84 93 150 7 11 15 22 18 25 4
4 79 122 134 213 10 17 51 82 90 142 38 61 75 120 82 130 70 116 118 191 125
193 4 2 8 8 8 13 0 6 20 40 43 77 101 155 315 494 348 550 27 45 268 426 276
437 4 6 14 22 22 38 8 15 18 27 23 27 4 0 8 4 8 9 0 6 27 52 60 103 33 51 69
109 80 128 23 39 31 52 210 333 69 109 132 209 140 225 24 42 74 116 83 123 5
3 8 9 8 13 -1 3 6 16 14 29 9 12 49 76 90 142 41 66 78 125 83 130 4 6 11 17
15 25 4 8 50 82 102 164 52 81 95 152 95 157 0 5 5 9 10 9 6 0 10 7 10 15 0 8
5 15 10 15 6 0 10 5 10 10 0 6 29 55 65 110 36 55 65 103 65 108 0 4 11 19 25
34 14 15 24 29 23 30 -3 3 112 188 117 188 2 0 16 -22 32 -50 15 -27 31 -50
36 -50 4 0 7 -5 7 -11 0 -6 12 -29 28 -52 15 -23 32 -51 39 -62 21 -34 112
-179 123 -195 61 -92 110 -172 110 -180 0 -6 5 -10 10 -10 6 0 10 -6 10 -14 0
-8 3 -16 8 -18 7 -3 72 -105 72 -114 0 -3 5 -10 10 -17 10 -11 28 -40 108
-167 19 -30 54 -85 78 -122 24 -37 44 -70 44 -73 0 -3 5 -11 10 -18 21 -23
160 -251 160 -260 0 -6 -11 -25 -25 -43 -14 -18 -25 -37 -25 -43 0 -6 -5 -11
-12 -11 -6 0 -9 -3 -5 -6 3 -3 1 -11 -4 -18 -18 -21 -119 -179 -119 -187 0 -4
-6 -14 -13 -21 -7 -7 -35 -49 -62 -92 -28 -44 -60 -95 -73 -115 -12 -20 -25
-44 -28 -53 -3 -9 -12 -19 -20 -22 -8 -3 -14 -10 -14 -16 0 -7 -20 -43 -45
-81 -25 -38 -45 -74 -45 -79 0 -6 -4 -10 -9 -10 -5 0 -16 -15 -25 -32 -9 -18
-35 -60 -56 -93 -22 -33 -47 -75 -57 -92 -9 -18 -20 -33 -25 -33 -4 0 -8 -4
-8 -9 0 -5 -37 -67 -82 -138 -44 -70 -102 -162 -127 -203 -25 -41 -56 -89 -69
-107 -12 -17 -22 -34 -22 -37 0 -4 -5 -12 -10 -19 -10 -11 -99 -151 -195 -306
-22 -35 -47 -74 -55 -87 -8 -12 -42 -66 -75 -119 -33 -53 -71 -114 -85 -135
-14 -22 -54 -86 -89 -142 -36 -57 -69 -106 -74 -109 -5 -3 -8 -9 -7 -13 0 -4
-14 -30 -33 -59 -19 -28 -48 -74 -65 -102 -17 -27 -36 -55 -42 -62 -5 -7 -10
-14 -10 -17 0 -2 -52 -86 -115 -185 -63 -100 -115 -184 -115 -187 0 -2 -5 -10
-10 -17 -6 -7 -30 -42 -53 -78 -23 -37 -69 -109 -102 -160 -33 -52 -68 -109
-78 -128 -10 -18 -23 -38 -28 -45 -5 -6 -30 -45 -56 -86 -25 -41 -53 -86 -62
-99 -9 -13 -25 -38 -36 -57 -22 -36 -54 -88 -220 -349 -59 -93 -133 -210 -163
-260 -31 -49 -59 -92 -62 -95 -4 -3 -10 -12 -13 -20 -4 -8 -15 -27 -25 -42
-87 -138 -193 -308 -197 -319 -4 -12 70 -14 471 -14 461 1 477 1 491 20 8 11
39 61 70 110 78 126 111 178 123 192 5 7 10 17 10 23 0 5 4 10 9 10 5 0 11 8
15 18 3 9 11 26 18 36 39 58 225 355 237 379 8 15 18 27 23 27 4 0 8 5 8 11 0
6 14 30 30 54 17 24 30 48 30 53 0 6 3 12 8 14 4 2 45 64 91 138 46 74 91 146
101 160 9 14 78 122 152 240 74 118 167 266 207 328 39 63 71 118 71 123 0 5
3 9 8 9 4 0 23 27 42 60 19 33 39 59 44 57 12 -4 146 -214 146 -228 0 -5 4 -9
9 -9 5 0 13 -10 17 -22 4 -13 10 -25 14 -28 10 -7 130 -201 130 -209 0 -5 9
-16 20 -26 11 -10 20 -22 20 -27 0 -5 22 -42 50 -83 27 -41 50 -76 50 -79 0
-2 16 -28 35 -57 43 -66 40 -60 120 -187 36 -57 65 -108 65 -113 0 -5 4 -9 8
-9 5 0 15 -12 23 -27 16 -31 193 -314 275 -440 30 -46 54 -84 54 -86 0 -2 27
-45 60 -95 33 -51 60 -94 60 -97 0 -4 11 -21 25 -39 14 -18 25 -37 25 -42 1
-5 9 -20 20 -32 17 -20 22 -22 33 -10 8 7 16 18 18 24 5 13 72 121 147 235 28
45 52 85 52 90 0 5 5 9 10 9 6 0 10 5 10 11 0 6 14 30 30 54 17 24 30 48 30
54 0 6 3 11 8 11 4 0 16 17 27 37 11 21 22 40 26 43 3 3 19 27 35 53 16 27 36
59 44 72 8 12 29 46 45 74 17 28 33 51 38 51 4 0 7 7 7 15 0 8 5 15 12 15 6 0
8 3 5 7 -4 3 -1 13 7 22 20 24 136 211 136 220 0 5 7 11 15 15 8 3 15 12 15
20 0 8 6 21 13 28 6 8 17 23 24 33 6 11 47 76 90 144 43 69 80 130 82 135 2 6
7 13 11 16 3 3 28 41 55 85 27 44 52 82 56 85 3 3 9 15 13 28 4 12 11 22 14
22 4 0 16 17 27 37 11 21 22 40 25 43 3 3 28 41 55 85 27 44 53 83 58 86 5 3
8 10 8 15 -1 5 4 9 11 9 10 0 149 -211 204 -310 9 -16 42 -68 72 -115 91 -141
102 -159 102 -169 0 -5 4 -11 8 -13 5 -1 55 -77 112 -168 56 -91 112 -178 124
-195 11 -16 21 -33 21 -36 0 -3 8 -17 18 -30 9 -13 93 -145 187 -294 93 -148
173 -275 177 -281 4 -5 13 -19 19 -30 7 -10 50 -80 98 -154 74 -117 123 -196
161 -260 28 -47 7 -45 504 -45 259 1 473 4 477 7 3 4 -19 46 -50 92 -31 47
-56 90 -56 95 0 5 -3 11 -8 13 -4 1 -68 100 -141 218 -74 118 -137 217 -141
220 -4 3 -9 10 -11 15 -2 6 -51 85 -107 175 -57 91 -109 174 -115 184 -7 11
-15 25 -19 30 -22 30 -75 115 -87 139 -8 15 -18 27 -22 27 -4 0 -10 11 -13 25
-4 14 -11 25 -16 25 -6 0 -10 5 -10 11 0 5 -25 48 -55 94 -30 45 -55 86 -55
90 0 4 -9 19 -20 33 -24 31 -120 181 -120 187 0 2 -22 38 -50 79 -27 42 -50
80 -50 85 0 5 -4 11 -8 13 -8 3 -228 348 -247 388 -5 11 -13 20 -17 20 -5 0
-8 5 -8 10 0 6 -22 44 -50 86 -27 41 -50 78 -50 80 0 3 -8 17 -19 32 -10 15
-34 52 -53 82 -19 30 -43 68 -54 84 -10 16 -28 44 -39 62 -11 18 -51 83 -90
144 -82 130 -88 139 -225 358 -57 92 -106 169 -110 172 -9 9 -30 44 -45 78 -9
17 -20 32 -25 32 -6 0 -10 5 -10 10 0 6 -25 49 -55 95 -30 47 -55 90 -55 95 0
4 -4 10 -8 12 -10 4 -162 246 -162 258 0 4 -4 10 -9 12 -5 2 -17 17 -27 35
-63 106 -108 178 -116 181 -4 2 -8 8 -8 13 0 5 -16 32 -35 59 -19 27 -35 52
-35 56 0 3 -13 25 -30 49 -17 24 -30 48 -30 54 0 6 -4 11 -10 11 -5 0 -10 7
-10 15 0 8 -4 15 -10 15 -5 0 -10 7 -10 15 0 8 -3 15 -7 15 -5 0 -13 10 -19
23 -6 12 -57 95 -113 184 -63 99 -100 167 -95 175 17 30 219 353 224 358 3 3
14 21 24 40 11 19 24 40 28 45 13 15 188 297 188 302 0 2 5 9 11 16 26 30 96
146 91 151 -3 3 0 6 6 6 7 0 12 5 12 10 0 6 5 16 10 23 21 24 99 149 105 168
4 10 10 19 13 19 4 0 16 17 27 38 11 20 24 42 28 47 5 6 32 48 61 94 l53 83
49 -78 c27 -44 52 -80 56 -82 5 -2 8 -10 8 -18 0 -8 5 -14 10 -14 6 0 10 -4
10 -9 0 -9 299 -490 327 -526 5 -5 15 -23 23 -40 8 -16 20 -35 25 -42 6 -7 15
-18 21 -26 6 -7 15 -23 18 -35 4 -12 12 -22 17 -22 5 0 9 -5 9 -11 0 -5 18
-37 40 -69 22 -32 40 -64 40 -69 0 -6 5 -11 10 -11 6 0 10 -4 10 -9 0 -5 18
-37 40 -70 22 -33 40 -65 40 -71 0 -5 4 -10 8 -10 5 0 14 -10 21 -22 18 -34
24 -45 186 -300 83 -131 155 -247 161 -258 6 -11 18 -28 27 -37 8 -10 16 -22
17 -28 2 -10 11 -24 123 -197 32 -48 57 -92 57 -98 0 -5 5 -10 10 -10 6 0 10
-4 10 -9 0 -5 17 -36 38 -68 20 -32 43 -67 49 -78 26 -40 119 -188 161 -253
24 -37 45 -75 49 -84 3 -10 9 -18 14 -18 5 0 9 -6 9 -14 0 -8 4 -16 8 -18 7
-2 30 -39 105 -163 7 -11 15 -22 18 -25 3 -3 19 -27 35 -55 16 -27 50 -83 76
-122 27 -40 48 -77 48 -83 0 -5 4 -10 9 -10 5 0 11 -8 14 -17 4 -10 38 -67 77
-126 38 -60 70 -110 70 -111 0 -2 27 -44 60 -94 33 -51 60 -96 60 -102 0 -5 4
-10 8 -10 5 0 14 -10 19 -23 6 -13 42 -72 79 -131 38 -59 88 -137 112 -174 23
-37 47 -74 52 -82 42 -64 190 -303 190 -307 0 -2 4 -9 10 -16 16 -19 80 -118
80 -124 0 -3 13 -23 29 -46 15 -23 48 -73 71 -112 24 -38 72 -114 107 -167 35
-54 63 -100 63 -103 0 -3 5 -11 10 -18 14 -17 105 -159 113 -177 6 -12 87
-141 127 -200 6 -8 42 -67 81 -130 40 -63 75 -117 78 -120 3 -3 14 -18 23 -35
28 -50 57 -98 86 -142 15 -23 96 -152 181 -287 90 -144 161 -246 170 -247 44
-3 928 -4 938 -1 6 2 -18 48 -57 110 -38 59 -107 170 -155 247 -48 77 -95 151
-104 164 -9 13 -20 31 -26 40 -16 26 -258 410 -277 439 -10 15 -27 43 -38 62
-11 19 -38 62 -60 95 -22 33 -49 76 -60 95 -11 19 -63 102 -115 184 -52 81
-95 150 -95 153 0 2 -5 9 -10 16 -6 7 -39 57 -73 112 -34 55 -65 102 -69 103
-5 2 -8 8 -8 13 0 5 -22 43 -50 85 -27 41 -50 77 -50 80 0 5 -64 102 -80 121
-5 7 -10 14 -10 17 0 3 -79 129 -175 281 -96 153 -175 281 -175 286 0 5 -4 9
-10 9 -5 0 -10 7 -10 15 0 8 -4 15 -10 15 -5 0 -10 4 -10 10 0 9 -37 69 -126
207 -19 28 -34 54 -34 58 0 3 -8 15 -18 26 -11 10 -25 32 -33 47 -16 32 -104
172 -119 189 -5 7 -10 17 -10 23 0 5 -4 10 -10 10 -5 0 -10 4 -10 10 0 5 -36
66 -80 135 -44 69 -80 130 -80 135 0 6 -4 10 -9 10 -5 0 -14 14 -21 30 -7 17
-16 30 -21 30 -5 0 -9 5 -9 10 0 6 -22 44 -50 86 -27 41 -50 78 -50 80 0 3
-22 38 -50 79 -28 41 -50 76 -50 79 0 3 -13 25 -29 48 -53 80 -126 193 -130
203 -2 6 -20 35 -40 65 -20 31 -41 64 -48 75 -10 18 -141 225 -185 293 -9 15
-29 48 -44 75 -15 26 -31 47 -36 47 -4 0 -8 5 -8 11 0 9 -28 56 -86 143 -10
16 -23 36 -29 45 -5 9 -33 53 -62 98 -29 46 -53 85 -53 89 0 3 -6 11 -12 19
-7 7 -26 36 -43 64 -16 28 -54 88 -83 132 -28 44 -52 85 -52 90 0 5 -4 9 -10
9 -5 0 -10 4 -10 9 0 9 -56 99 -218 354 -45 70 -82 130 -82 133 0 3 -5 10 -10
17 -21 24 -130 198 -130 208 0 5 -3 9 -7 9 -5 0 -13 10 -19 23 -6 12 -47 80
-92 150 -45 71 -82 133 -82 138 0 5 -3 9 -8 9 -4 0 -18 20 -32 45 -14 25 -28
45 -32 45 -5 0 -8 5 -8 11 0 6 -13 30 -30 54 -17 24 -30 48 -30 54 0 6 -3 11
-8 11 -4 0 -12 9 -17 20 -6 11 -53 88 -105 170 -52 83 -100 158 -105 168 -6 9
-31 50 -58 90 -26 40 -47 77 -47 82 0 6 -4 10 -10 10 -5 0 -10 7 -10 15 0 8
-4 15 -10 15 -5 0 -10 4 -10 9 0 12 -102 175 -112 179 -5 2 -8 8 -8 14 0 5
-13 29 -30 53 -16 24 -30 48 -30 54 0 6 -3 11 -7 11 -5 0 -24 27 -42 60 -19
33 -38 60 -41 60 -7 0 -34 -31 -44 -50 -9 -20 -24 -44 -69 -113 -20 -31 -37
-61 -37 -66 0 -5 -4 -11 -8 -13 -4 -1 -32 -43 -62 -91 -86 -139 -93 -149 -135
-215 -22 -35 -59 -93 -82 -130 -23 -37 -47 -72 -53 -79 -5 -7 -10 -17 -10 -23
0 -5 -5 -10 -10 -10 -6 0 -9 -3 -8 -7 1 -5 -15 -35 -37 -68 -22 -33 -44 -68
-50 -78 -5 -9 -73 -117 -150 -239 -77 -121 -147 -233 -155 -247 -8 -14 -19
-30 -23 -36 -4 -5 -28 -44 -54 -85 -26 -41 -65 -104 -88 -140 -23 -36 -48 -76
-55 -89 -7 -14 -17 -30 -22 -35 -5 -6 -54 -83 -110 -171 -55 -88 -104 -164
-108 -168 -5 -6 -80 93 -80 107 0 3 -18 32 -40 65 -22 33 -40 64 -40 70 0 5
-3 11 -8 13 -4 2 -38 53 -76 113 -38 61 -79 126 -91 145 -12 19 -38 60 -57 90
-91 144 -137 216 -145 225 -5 6 -10 13 -11 18 -2 7 -47 81 -153 245 -30 48
-58 95 -62 105 -3 9 -10 17 -16 17 -5 0 -11 8 -13 18 -3 10 -30 56 -60 102
-54 84 -189 296 -218 345 -8 14 -75 119 -147 234 -73 115 -136 216 -139 225
-11 27 -28 18 -54 -29z m1450 -3734 c0 -6 5 -11 10 -11 6 0 10 -7 10 -15 0 -8
5 -15 10 -15 6 0 10 -5 10 -10 0 -9 88 -151 109 -176 5 -6 19 -29 30 -50 12
-21 39 -66 61 -99 21 -33 53 -82 70 -110 17 -27 44 -70 60 -95 16 -25 43 -67
60 -95 17 -27 51 -81 76 -120 24 -38 47 -77 51 -85 4 -8 9 -17 13 -20 10 -8
150 -236 150 -244 0 -4 -15 -31 -34 -59 -18 -29 -55 -86 -81 -127 -26 -41 -56
-87 -66 -102 -10 -15 -19 -30 -19 -34 0 -3 -10 -20 -22 -37 -26 -36 -40 -59
-64 -104 -10 -18 -21 -33 -24 -33 -4 0 -15 -18 -25 -40 -10 -22 -22 -40 -27
-40 -4 0 -8 -6 -8 -13 0 -7 -9 -23 -20 -35 -11 -12 -20 -23 -20 -26 0 -5 -82
-138 -155 -251 -18 -27 -74 -116 -125 -197 -51 -82 -96 -148 -99 -148 -5 0
-56 75 -111 165 -8 14 -55 89 -105 167 -49 78 -92 147 -95 153 -3 5 -34 55
-71 110 -36 55 -68 107 -72 115 -9 19 -30 53 -37 60 -3 3 -49 75 -103 160 -53
85 -101 160 -107 167 -5 7 -10 15 -10 18 0 4 -14 27 -31 51 -23 33 -28 48 -20
58 6 7 8 16 4 19 -3 4 -1 7 5 7 7 0 12 7 12 15 0 8 4 15 9 15 5 0 14 14 21 30
7 17 16 30 21 30 5 0 9 5 9 10 0 6 25 49 55 95 30 47 55 90 55 95 0 4 3 10 8
12 4 2 56 82 116 178 60 96 114 178 120 182 6 4 8 8 3 8 -4 0 9 22 28 50 19
27 35 52 35 54 0 2 18 31 40 64 22 33 40 65 40 71 0 6 4 11 8 11 5 0 14 10 21
23 19 35 32 56 105 170 l69 107 23 -34 c13 -19 24 -40 24 -45z"/>
</g>
</svg>
